<?xml version="1.0" standalone="no"?>
<!DOCTYPE svg PUBLIC "-//W3C//DTD SVG 20010904//EN"
 "http://www.w3.org/TR/2001/REC-SVG-20010904/DTD/svg10.dtd">
<svg version="1.0" xmlns="http://www.w3.org/2000/svg"
 width="256.000000pt" height="256.000000pt" viewBox="0 0 256.000000 256.000000"
 preserveAspectRatio="xMidYMid meet">
<metadata>
Created by potrace 1.14, written by Peter Selinger 2001-2017
</metadata>
<g transform="translate(0.000000,256.000000) scale(0.100000,-0.100000)"
fill="#000000" stroke="none">
<path d="M1135 1935 c-206 -56 -362 -179 -450 -358 -99 -200 -99 -401 0 -603
76 -155 203 -273 365 -337 177 -70 345 -60 530 30 173 84 307 251 357 443 26
99 23 256 -6 350 -28 92 -51 137 -108 218 -84 118 -241 223 -385 257 -78 18
-236 18 -303 0z m305 -82 c136 -37 257 -126 339 -249 159 -237 126 -549 -79
-755 -239 -240 -589 -240 -831 1 -129 128 -188 283 -176 464 7 114 35 197 99
292 97 145 243 238 413 263 72 11 161 5 235 -16z"/>
<path d="M1214 1830 c-126 -19 -227 -71 -320 -164 -144 -144 -195 -332 -144
-530 26 -104 62 -167 143 -252 171 -182 423 -225 642 -111 87 45 204 165 244
250 108 226 68 470 -104 642 -128 128 -301 190 -461 165z m196 -128 c20 -11
45 -37 58 -60 13 -23 30 -42 38 -42 30 0 64 -47 64 -88 0 -69 -62 -109 -125
-79 -31 15 -35 14 -74 -5 -46 -23 -85 -19 -126 13 l-25 20 -26 -20 c-40 -31
-96 -28 -136 8 -30 26 -33 35 -33 84 0 62 18 91 73 114 26 11 42 11 73 3 37
-10 43 -9 56 10 40 57 120 75 183 42z m261 -155 c-13 -13 -26 -3 -16 12 3 6
11 8 17 5 6 -4 6 -10 -1 -17z m-741 -3 c0 -17 -22 -14 -28 4 -2 7 3 12 12 12
9 0 16 -7 16 -16z m-30 -129 c15 -18 5 -35 -21 -35 -12 0 -19 7 -19 18 0 33
20 42 40 17z m816 -6 c10 -17 -13 -36 -27 -22 -12 12 -4 33 11 33 5 0 12 -5
16 -11z m-466 -44 c33 -19 98 -19 133 0 21 10 34 12 47 5 10 -6 33 -10 50 -10
l31 0 -3 -256 c-4 -322 18 -294 -224 -294 -161 0 -176 2 -194 20 -19 19 -20
33 -20 279 l0 260 30 -10 30 -11 0 -203 c0 -168 3 -205 15 -215 12 -10 18 -10
30 0 12 10 15 48 15 225 0 208 2 221 30 224 3 0 16 -6 30 -14z m420 -84 c0
-11 -4 -22 -8 -25 -14 -9 -35 12 -29 28 9 23 37 20 37 -3z m-808 -16 c0 -5 -5
-11 -11 -13 -6 -2 -11 4 -11 13 0 9 5 15 11 13 6 -2 11 -8 11 -13z m786 -123
c2 -7 -3 -12 -12 -12 -9 0 -16 7 -16 16 0 17 22 14 28 -4z m-688 -7 c0 -8 -4
-15 -9 -15 -13 0 -22 16 -14 24 11 11 23 6 23 -9z m8 -152 c5 -18 -28 -29 -38
-12 -5 7 -6 17 -3 22 7 12 35 5 41 -10z m680 0 c5 -17 -26 -29 -40 -15 -6 6
-7 15 -3 22 9 14 37 9 43 -7z"/>
<path d="M1260 1271 c-13 -25 -13 -291 0 -325 11 -31 35 -34 50 -7 15 29 13
324 -2 339 -18 18 -36 15 -48 -7z"/>
<path d="M1392 1278 c-8 -8 -12 -59 -12 -174 0 -169 6 -193 44 -178 15 6 16
26 14 183 -3 148 -5 176 -18 179 -9 1 -21 -3 -28 -10z"/>
</g>
</svg>
